Coordinates
version=1
nRows=8
nColumns=40
inDegrees=yes

Units are S.I. units (second, meters, Newtons, ...)
If the header above contains a line with 'inDegrees', this indicates whether rotational values are in degrees (yes) or radians (no).

endheader
time	pelvis_tilt	pelvis_list	pelvis_rotation	pelvis_tx	pelvis_ty	pelvis_tz	hip_flexion_r	hip_adduction_r	hip_rotation_r	knee_angle_r	knee_angle_r_beta	ankle_angle_r	subtalar_angle_r	mtp_angle_r	hip_flexion_l	hip_adduction_l	hip_rotation_l	knee_angle_l	knee_angle_l_beta	ankle_angle_l	subtalar_angle_l	mtp_angle_l	lumbar_extension	lumbar_bending	lumbar_rotation	arm_flex_r	arm_add_r	arm_rot_r	elbow_flex_r	pro_sup_r	wrist_flex_r	wrist_dev_r	arm_flex_l	arm_add_l	arm_rot_l	elbow_flex_l	pro_sup_l	wrist_flex_l	wrist_dev_l
      6.92500000	    -19.55675801	      4.22703389	      2.46634021	     -0.34679386	      0.79628232	     -1.01171488	     18.67502050	     -9.22936448	     -2.85985345	     86.50286409	      1.50975979	    -10.21048306	      0.00000000	      0.00000000	     55.92392249	      4.76871523	    -10.69381523	     63.66126962	      1.11109876	     18.19091162	      0.00000000	      0.00000000	    -12.50599376	     -8.89231227	      0.06671102	     46.87315660	    -10.10437155	     10.92282286	     28.11026849	     84.71065132	      0.00000000	      0.00000000	     46.85158342	    -22.09044802	     24.79353758	     45.73289718	     86.24090420	      0.00000000	      0.00000000
      6.93000000	    -19.39332451	      4.26950584	      2.42539675	     -0.34613709	      0.79746768	     -1.01184105	     18.64816015	     -9.30360709	     -2.82443108	     86.56964443	      1.51092533	    -10.19367377	      0.00000000	      0.00000000	     55.55409769	      4.86109783	    -10.63098236	     63.37660181	      1.10613037	     18.17774703	      0.00000000	      0.00000000	    -12.55693384	     -8.92302665	      0.16412768	     46.03035293	     -9.84501175	      9.96288629	     27.75870840	     85.62467885	      0.00000000	      0.00000000	     45.90169376	    -21.71286384	     24.32899322	     45.32849843	     85.87579901	      0.00000000	      0.00000000
      6.93500000	    -19.31479501	      4.14367479	      2.38402304	     -0.34529550	      0.79831969	     -1.01211917	     18.65880424	     -9.24127642	     -2.86179693	     86.59202779	      1.51131599	    -10.01541894	      0.00000000	      0.00000000	     55.32820483	      4.77917139	    -10.56145609	     63.25439828	      1.10399752	     18.18000226	      0.00000000	      0.00000000	    -12.44887091	     -8.74211721	      0.25138708	     45.15641577	     -9.80977955	     10.39104561	     27.45718015	     85.38350726	      0.00000000	      0.00000000	     44.82215495	    -21.49598545	     23.96449820	     45.15778185	     85.99082081	      0.00000000	      0.00000000
      6.94000000	    -19.12283586	      4.07943561	      2.34504085	     -0.34466475	      0.79936655	     -1.01222725	     18.59080976	     -9.23931924	     -2.90090880	     86.63513035	      1.51206827	    -10.08907693	      0.00000000	      0.00000000	     54.96698035	      4.75534882	    -10.48309119	     63.05575868	      1.10053060	     18.22366733	      0.00000000	      0.00000000	    -12.52606755	     -8.65145701	      0.30249888	     44.36889526	     -9.63266748	     10.20852384	     27.15391877	     85.40646529	      0.00000000	      0.00000000	     43.87750507	    -21.25179408	     23.52968824	     44.92682897	     86.00182977	      0.00000000	      0.00000000
      6.94500000	    -19.03913953	      4.02099252	      2.27176578	     -0.34395458	      0.80028247	     -1.01243138	     18.66773798	     -9.23254216	     -2.85241092	     86.70794895	      1.51333920	    -10.12973670	      0.00000000	      0.00000000	     54.72705065	      4.73432244	    -10.39841210	     62.86788455	      1.09725158	     18.20237200	      0.00000000	      0.00000000	    -12.43892905	     -8.57043560	      0.39756945	     43.51581487	     -9.55121360	     10.40996866	     26.90529035	     85.27422587	      0.00000000	      0.00000000	     42.93301050	    -21.20557483	     23.68769922	     44.74720030	     85.93122806	      0.00000000	      0.00000000
      6.95000000	    -18.90543491	      3.98111354	      2.22171199	     -0.34334041	      0.80128390	     -1.01253511	     18.67464773	     -9.24553360	     -2.84099613	     86.77624035	      1.51453111	    -10.06565843	      0.00000000	      0.00000000	     54.43020602	      4.72255588	    -10.33815674	     62.62320593	      1.09298113	     18.06017767	      0.00000000	      0.00000000	    -12.44675871	     -8.51714749	      0.45450846	     42.70945330	     -9.43229309	     10.56138684	     26.63455648	     84.92557609	      0.00000000	      0.00000000	     42.00070542	    -21.03030031	     23.43567585	     44.49163561	     86.12240773	      0.00000000	      0.00000000
      6.95500000	    -18.75697430	      3.85865211	      2.16626057	     -0.34268678	      0.80229301	     -1.01260490	     18.65892382	     -9.15406879	     -2.87468162	     86.84486775	      1.51572888	     -9.93297767	      0.00000000	      0.00000000	     54.14490097	      4.61968861	    -10.23512186	     62.51554692	      1.09110213	     18.07636724	      0.00000000	      0.00000000	    -12.45805461	     -8.37821750	      0.51065218	     41.90052121	     -9.24165681	     10.48863345	     26.27681065	     84.79644820	      0.00000000	      0.00000000	     41.10209181	    -20.79870506	     23.01321072	     44.15089919	     86.11274402	      0.00000000	      0.00000000
      6.96000000	    -18.63756206	      3.78949614	      2.06398960	     -0.34196386	      0.80314874	     -1.01270042	     18.69629362	     -9.11606481	     -2.81906184	     86.90724993	      1.51681766	    -10.13654274	      0.00000000	      0.00000000	     53.86739188	      4.53199865	    -10.22430641	     62.36597670	      1.08849163	     18.20274883	      0.00000000	      0.00000000	    -12.40807055	     -8.28441416	      0.64483057	     41.11001669	     -9.18163633	     10.76751664	     25.99082112	     83.93262875	      0.00000000	      0.00000000	     40.16069760	    -20.72518669	     23.06593949	     43.94960314	     86.28476133	      0.00000000	      0.00000000
